<?xml version="1.0" standalone="no"?>
<!DOCTYPE svg PUBLIC "-//W3C//DTD SVG 20010904//EN"
 "http://www.w3.org/TR/2001/REC-SVG-20010904/DTD/svg10.dtd">
<svg version="1.0" xmlns="http://www.w3.org/2000/svg"
 width="269.000000pt" height="269.000000pt" viewBox="0 0 269.000000 269.000000"
 preserveAspectRatio="xMidYMid meet">
<metadata>
Created by potrace 1.11, written by Peter Selinger 2001-2013
</metadata>
<g transform="translate(0.000000,269.000000) scale(0.100000,-0.100000)"
fill="#000000" stroke="none">
<path d="M1945 1456 c-82 -21 -122 -42 -174 -94 -69 -69 -94 -140 -89 -252 4
-67 10 -96 31 -136 53 -104 105 -144 311 -239 65 -30 129 -61 143 -70 39 -26
65 -75 59 -114 -11 -76 -67 -112 -171 -112 -95 0 -167 38 -230 123 l-20 27
-102 -60 -102 -60 21 -36 c142 -241 570 -300 761 -105 70 71 91 127 92 242 0
84 -3 102 -28 152 -52 107 -112 148 -409 287 -26 13 -61 35 -78 51 -25 23 -30
36 -30 73 0 124 158 158 247 52 l35 -43 94 60 c52 33 94 66 94 73 0 21 -89
114 -137 142 -85 50 -213 65 -318 39z"/>
<path d="M1217 1453 c-4 -3 -7 -211 -7 -462 0 -414 -2 -459 -18 -491 -23 -47
-55 -62 -125 -57 -47 3 -63 9 -88 33 -17 16 -37 41 -45 57 -8 15 -19 27 -24
27 -8 0 -186 -104 -199 -116 -8 -8 51 -93 88 -127 172 -155 481 -137 598 36
62 91 63 105 63 631 l0 476 -118 0 c-65 0 -122 -3 -125 -7z"/>
</g>
</svg>
